<svg xmlns="http://www.w3.org/2000/svg" version="1.1" xmlns:xlink="http://www.w3.org/1999/xlink" xmlns:svgjs="http://svgjs.dev/svgjs" width="1000" height="1000" viewBox="0 0 1000 1000"><g transform="matrix(1,0,0,1,0,1.1368683772161603e-13)"><svg viewBox="0 0 280 280" data-background-color="#ffffff" preserveAspectRatio="xMidYMid meet" height="1000" width="1000" xmlns="http://www.w3.org/2000/svg" xmlns:xlink="http://www.w3.org/1999/xlink"><g id="tight-bounds" transform="matrix(1,0,0,1,0,-2.842170943040401e-14)"><svg viewBox="0 0 280 280" height="280" width="280"><g><svg viewBox="0 0 280 280" height="280" width="280"><g><svg viewBox="0 0 280 280" height="280" width="280"><g id="textblocktransform"><svg viewBox="0 0 280 280" height="280" width="280" id="textblock"><g><svg viewBox="0 0 280 280" height="280" width="280"><g transform="matrix(1,0,0,1,74.81640642551743,74.00336708925556)"><svg viewBox="0 0 130.36718714896514 131.99326582148888" height="131.99326582148888" width="130.36718714896514"><g><svg xmlns="http://www.w3.org/2000/svg" xmlns:xlink="http://www.w3.org/1999/xlink" version="1.1" x="0" y="0" viewBox="10.166999816894531 8.833000183105469 80.33300018310547 81.33499908447266" enable-background="new 0 0 100 100" xml:space="preserve" height="131.99326582148888" width="130.36718714896514" class="icon-o-0" data-fill-palette-color="accent" id="o-0"><g fill="#0080ff" data-fill-palette-color="accent"><path d="M34.334 34.383c3.392-0.565 10.834-1.05 16.486-1.05 6.945 0 12.033 1.615 15.263 4.522 2.989 2.584 5.765 8.541 5.765 13.387 0 4.927-1.453 9.803-4.199 12.629-3.715 3.957-10.771 6.977-17.636 6.977-2.1 0-4.038-0.082-5.653-0.485v19.805H34.334V34.383zM44.359 62.629c1.535 0.404 3.473 0.565 5.814 0.565 8.479 0 13.648-4.119 13.648-11.63 0-7.187-5.087-9.659-12.84-9.659-3.069 0-5.411 0.242-6.623 0.565V62.629z" fill="#0080ff" data-fill-palette-color="accent"></path></g><polygon points="90.5,32.5 50.167,19.5 10.167,32.5 10.167,21.833 49.833,8.833 90.5,21.833 " fill="#0080ff" data-fill-palette-color="accent"></polygon></svg></g></svg></g><g><path d="M16.171 87.415v0c2.672 0.907 4.419 2.517 5.24 4.828 0.821 2.312 0.655 5.166-0.497 8.562v0l-1.053 3.103 10.384 3.525-1.043 3.074-26.41-8.963 2.325-6.848c2.239-6.596 5.924-9.023 11.054-7.281zM6.496 99.372l10.724 3.64 0.938-2.764c0.922-2.716 1.15-4.834 0.683-6.352-0.462-1.51-1.665-2.595-3.607-3.255v0c-1.748-0.593-3.241-0.462-4.478 0.395-1.244 0.854-2.276 2.492-3.098 4.912v0z" fill="#0080ff" data-fill-palette-color="primary"></path><path d="M65.839 54.151l-2.334 2.412-8.795-3.674-7.771 8.031 3.988 8.641-2.279 2.355-12.453-27.394 1.898-1.961zM45.638 58.068l6.275-6.485-8.463-3.672c-1.078-0.461-2.342-1.084-3.792-1.868v0c0.684 1.05 1.369 2.272 2.053 3.665v0z" fill="#0080ff" data-fill-palette-color="primary"></path><path d="M93.316 25.073l-5.36 2.257 4.5 10.685-2.993 1.261-10.825-25.703 7.05-2.969c3.152-1.327 5.734-1.705 7.747-1.134 2.016 0.578 3.534 2.078 4.555 4.502v0c1.43 3.396 0.676 6.42-2.265 9.07v0l11.849 8.606-3.534 1.488zM82.733 14.929l4.14 9.831 4.094-1.724c2.111-0.889 3.48-1.959 4.106-3.21 0.632-1.253 0.595-2.718-0.111-4.395v0c-0.714-1.695-1.728-2.709-3.043-3.042-1.321-0.33-3.089-0.029-5.303 0.905v0z" fill="#0080ff" data-fill-palette-color="primary"></path><path d="M144.667 12.299l11.278 16.034-3.814-0.086-9.854-13.75-2.976 2.534-0.245 10.924-3.246-0.073 0.624-27.882 3.246 0.073-0.309 13.831 12.946-13.549 3.834 0.086z" fill="#0080ff" data-fill-palette-color="primary"></path><path d="M186.432 37.481l-3.024-1.183 10.157-25.974 3.024 1.183z" fill="#0080ff" data-fill-palette-color="primary"></path><path d="M240.194 61.602v0c-3.123 3.187-6.386 4.904-9.788 5.149-3.402 0.246-6.537-1.037-9.406-3.849v0c-2.931-2.872-4.315-5.985-4.152-9.34 0.158-3.359 1.841-6.675 5.048-9.947v0c3.174-3.239 6.437-4.97 9.787-5.191 3.35-0.212 6.496 1.122 9.436 4.003v0c2.86 2.802 4.204 5.9 4.032 9.292-0.172 3.392-1.825 6.686-4.957 9.883zM224.322 46.049v0c-2.644 2.699-4.076 5.307-4.294 7.826-0.214 2.524 0.772 4.857 2.958 6.999v0c2.21 2.166 4.558 3.105 7.044 2.817 2.49-0.283 5.063-1.779 7.717-4.488v0c2.626-2.68 4.055-5.263 4.288-7.749 0.238-2.482-0.744-4.801-2.944-6.957v0c-2.205-2.161-4.567-3.109-7.087-2.844-2.514 0.27-5.075 1.735-7.682 4.396z" fill="#0080ff" data-fill-palette-color="primary"></path><path d="M271.506 97.203l-23.531 8.474-1.1-3.055 23.531-8.474-2.994-8.312 2.709-0.976 7.087 19.68-2.709 0.975z" fill="#0080ff" data-fill-palette-color="primary"></path><path d="M34.064 193.684v0c-2.715 0.925-5.117 0.712-7.205-0.639-2.09-1.357-3.723-3.762-4.898-7.213v0l-1.072-3.149-10.551 3.594-1.063-3.12 26.814-9.135 2.367 6.949c2.282 6.7 0.818 10.938-4.392 12.713zM34.456 178.062l-10.89 3.709 0.954 2.8c0.942 2.766 2.069 4.612 3.382 5.541 1.314 0.934 2.955 1.066 4.922 0.396v0c1.773-0.604 2.894-1.635 3.366-3.093 0.471-1.458 0.288-3.416-0.549-5.874v0z" fill="#0080ff" data-fill-palette-color="primary"></path><path d="M50.967 247.558l-2.371-2.445 4.015-8.807-7.906-8.151-8.897 3.774-2.323-2.395 28.214-11.77 1.934 1.995zM47.633 226.925l6.387 6.585 4.004-8.476c0.505-1.082 1.179-2.346 2.023-3.794v0c-1.09 0.66-2.354 1.317-3.792 1.971v0z" fill="#0080ff" data-fill-palette-color="primary"></path><path d="M94.329 259.662l-5.444-2.289-4.567 10.862-3.039-1.277 10.978-26.114 7.162 3.011c3.201 1.346 5.31 2.953 6.326 4.821 1.013 1.874 1.002 4.041-0.033 6.501v0c-1.454 3.458-4.186 5.058-8.197 4.798v0l2.164 14.718-3.59-1.509zM94.177 244.785l-4.196 9.98 4.159 1.749c2.142 0.901 3.894 1.137 5.256 0.708 1.355-0.431 2.391-1.498 3.107-3.2v0c0.726-1.726 0.741-3.185 0.047-4.377-0.703-1.189-2.178-2.255-4.425-3.2v0z" fill="#0080ff" data-fill-palette-color="primary"></path><path d="M144.51 263.781l12.174 15.754-3.873 0.088-10.639-13.497-2.897 2.696 0.252 11.103-3.296 0.075-0.644-28.32 3.296-0.075 0.32 14.041 12.516-14.333 3.893-0.088z" fill="#0080ff" data-fill-palette-color="primary"></path><path d="M194.056 268.994l-3.072 1.198-10.289-26.393 3.072-1.197z" fill="#0080ff" data-fill-palette-color="primary"></path><path d="M235.255 220.104v0c3.169 3.244 4.839 6.598 5.01 10.061 0.176 3.458-1.197 6.614-4.119 9.467v0c-2.983 2.914-6.175 4.25-9.577 4.009-3.406-0.237-6.736-2.02-9.988-5.351v0c-3.22-3.296-4.902-6.648-5.045-10.053-0.153-3.406 1.267-6.571 4.259-9.494v0c2.912-2.844 6.087-4.141 9.527-3.89 3.444 0.247 6.755 1.997 9.933 5.251zM219.103 235.883v0c2.682 2.745 5.299 4.255 7.849 4.529 2.556 0.279 4.948-0.67 7.176-2.846v0c2.247-2.195 3.251-4.559 3.013-7.093-0.233-2.529-1.696-5.171-4.387-7.926v0c-2.663-2.726-5.252-4.236-7.765-4.528-2.518-0.297-4.896 0.647-7.133 2.833v0c-2.247 2.195-3.261 4.573-3.042 7.134 0.214 2.557 1.644 5.189 4.288 7.897z" fill="#0080ff" data-fill-palette-color="primary"></path><path d="M243.85 179.799l23.884 8.64-1.118 3.091-23.884-8.64-3.053 8.439-2.753-0.996 7.223-19.969 2.754 0.996z" fill="#0080ff" data-fill-palette-color="primary"></path><path d="M3.144 143.413c0-5.976 4.845-10.821 10.821-10.821 5.976 0 10.821 4.845 10.821 10.821 0 5.976-4.845 10.821-10.821 10.821-5.976 0-10.821-4.845-10.821-10.821z" fill="#0080ff" data-fill-palette-color="primary"></path><path d="M254.148 143.413c0-5.976 4.845-10.821 10.821-10.821 5.976 0 10.821 4.845 10.821 10.821 0 5.976-4.845 10.821-10.821 10.821-5.976 0-10.821-4.845-10.821-10.821z" fill="#0080ff" data-fill-palette-color="primary"></path></g></svg></g></svg></g></svg></g><g></g></svg></g><defs></defs></svg><rect width="280" height="280" fill="none" stroke="none" visibility="hidden"></rect></g></svg></g></svg>